# xmcd
#
# Track frame offsets: 
#        150
#        6996
#        34625
#        58335
#        75404
#        94442
#        110280
#        132182
#        166883
#        186097
#        217391
#        237228
#
# Disc length: 3711 seconds
#
# Revision: 0
# Processed by: cddbd v1.5.1PL0 Copyright (c) Steve Scherf et al.
# Submitted via: ExactAudioCopy v0.95a3
#
DISCID=a30e7d0c
DTITLE=Blues Traveler - Travelers and Thieves
DYEAR=1991
DGENRE=Blues
TTITLE0=The Tiding
TTITLE1=Onslaught
TTITLE2=Ivory Tusk
TTITLE3=What's For Breakfast
TTITLE4=I Have My Moments
TTITLE5=Optimistic Thoughts
TTITLE6=The Best Part
TTITLE7=Sweet Pain
TTITLE8=All InThe Grove
TTITLE9=Support Your Local Emperor
TTITLE10=Bagheera
TTITLE11=Mountain Cry
EXTD=
EXTT0=
EXTT1=
EXTT2=
EXTT3=
EXTT4=
EXTT5=
EXTT6=
EXTT7=
EXTT8=
EXTT9=
EXTT10=
EXTT11=
PLAYORDER=
